<?xml version="1.0" encoding="UTF-8"?>
<svg version="1.1" xmlns="http://www.w3.org/2000/svg" width="61" height="71">
<path d="M0 0 C2.40670927 0.69866411 3.43020264 1.60719207 4.96289062 3.56982422 C5.13366999 6.64385271 4.32782368 8.15089152 2.32617188 10.44873047 C0.57759509 12.20440087 -1.20098149 13.90628277 -3.03710938 15.56982422 C-2.37710937 15.56982422 -1.71710937 15.56982422 -1.03710938 15.56982422 C0.10371963 14.41750071 1.20239786 13.22306547 2.27539062 12.00732422 C5.61026199 8.6034079 5.61026199 8.6034079 8.58789062 8.31982422 C11.68149432 9.94803669 13.70047985 11.9195716 15.96289062 14.56982422 C15.96289062 15.22982422 15.96289062 15.88982422 15.96289062 16.56982422 C17.28289063 17.22982422 18.60289063 17.88982422 19.96289062 18.56982422 C19.96289062 19.22982422 19.96289062 19.88982422 19.96289062 20.56982422 C20.54039063 20.79669922 21.11789063 21.02357422 21.71289062 21.25732422 C24.71346479 23.00765915 26.07794507 24.62946494 27.96289062 27.56982422 C28.53527699 30.41980113 28.52296077 33.17143963 28.46289062 36.06982422 C28.47835937 36.81619141 28.49382813 37.56255859 28.50976562 38.33154297 C28.48191156 42.26592914 28.20345551 44.18728661 26.05664062 47.60107422 C23.96289062 49.56982422 23.96289062 49.56982422 21.96289062 49.56982422 C21.71539062 50.16794922 21.46789063 50.76607422 21.21289062 51.38232422 C19.72896149 53.97920021 18.52346976 55.02646145 15.96289062 56.56982422 C13.16601562 56.86279297 13.16601562 56.86279297 10.21289062 56.75732422 C9.22804687 56.73025391 8.24320313 56.70318359 7.22851562 56.67529297 C6.48085938 56.64048828 5.73320313 56.60568359 4.96289062 56.56982422 C5.01509766 57.81699219 5.01509766 57.81699219 5.06835938 59.08935547 C5.09542969 60.17603516 5.1225 61.26271484 5.15039062 62.38232422 C5.20259766 64.00074219 5.20259766 64.00074219 5.25585938 65.65185547 C4.96289062 68.56982422 4.96289062 68.56982422 3.73242188 70.43310547 C1.50453361 71.86426548 0.09917843 71.9711871 -2.53710938 71.94482422 C-3.69726562 71.95642578 -3.69726562 71.95642578 -4.88085938 71.96826172 C-7.03710937 71.56982422 -7.03710937 71.56982422 -8.80664062 70.43310547 C-10.59548351 67.72428625 -10.32807846 65.58986592 -10.22460938 62.38232422 C-10.19753906 61.29564453 -10.17046875 60.20896484 -10.14257812 59.08935547 C-10.10777344 58.25791016 -10.07296875 57.42646484 -10.03710938 56.56982422 C-10.73835938 56.65103516 -11.43960937 56.73224609 -12.16210938 56.81591797 C-17.68653844 57.18371284 -21.19264885 57.12195704 -25.47460938 53.38232422 C-27.28320312 51.58935547 -27.28320312 51.58935547 -29.03710938 49.56982422 C-30.1121875 48.46767578 -30.1121875 48.46767578 -31.20898438 47.34326172 C-34.66055451 42.10690531 -34.15111534 35.6134385 -33.453125 29.55664062 C-32.45613785 24.79520787 -29.23751456 22.13485269 -25.68603516 19.08251953 C-23.65686015 17.22099031 -21.82860972 15.21935153 -19.97070312 13.18701172 C-18.49363049 11.60554251 -17.0157596 10.0248185 -15.53710938 8.44482422 C-14.83787354 7.67267578 -14.1386377 6.90052734 -13.41821289 6.10498047 C-9.10549387 1.65236509 -6.29976703 -0.31554933 0 0 Z M14.96289062 23.56982422 C15.29289062 24.22982422 15.62289062 24.88982422 15.96289062 25.56982422 C16.29289062 24.90982422 16.62289062 24.24982422 16.96289062 23.56982422 C16.30289063 23.56982422 15.64289062 23.56982422 14.96289062 23.56982422 Z " fill="#D9DADD" transform="translate(33.037109375,-0.56982421875)"/>
<path d="M0 0 C1.32 0.99 2.64 1.98 4 3 C3.84595887 8.08335725 0.97931568 10.35754718 -2.50390625 13.64453125 C-2.99761719 14.09183594 -3.49132812 14.53914062 -4 15 C-3.34 15 -2.68 15 -2 15 C-0.85917099 13.8476765 0.23950723 12.65324125 1.3125 11.4375 C4.64737136 8.03358368 4.64737136 8.03358368 7.625 7.75 C10.7186037 9.37821247 12.73758923 11.34974738 15 14 C15 14.66 15 15.32 15 16 C16.32 16.66 17.64 17.32 19 18 C19 18.66 19 19.32 19 20 C19.5775 20.226875 20.155 20.45375 20.75 20.6875 C23.75057417 22.43783493 25.11505445 24.05964072 27 27 C27.57238636 29.84997691 27.56007015 32.60161541 27.5 35.5 C27.51546875 36.24636719 27.5309375 36.99273437 27.546875 37.76171875 C27.51902094 41.69610492 27.24056489 43.61746239 25.09375 47.03125 C23 49 23 49 21 49 C20.7525 49.598125 20.505 50.19625 20.25 50.8125 C18.76607086 53.40937599 17.56057913 54.45663723 15 56 C12.203125 56.29296875 12.203125 56.29296875 9.25 56.1875 C8.26515625 56.16042969 7.2803125 56.13335937 6.265625 56.10546875 C5.51796875 56.07066406 4.7703125 56.03585938 4 56 C4.05220703 57.24716797 4.05220703 57.24716797 4.10546875 58.51953125 C4.13253906 59.60621094 4.15960938 60.69289062 4.1875 61.8125 C4.23970703 63.43091797 4.23970703 63.43091797 4.29296875 65.08203125 C4 68 4 68 2.76953125 69.86328125 C0.54164299 71.29444126 -0.8637122 71.40136288 -3.5 71.375 C-4.66015625 71.38660156 -4.66015625 71.38660156 -5.84375 71.3984375 C-8 71 -8 71 -9.76953125 69.86328125 C-11.55837413 67.15446203 -11.29096909 65.0200417 -11.1875 61.8125 C-11.16042969 60.72582031 -11.13335938 59.63914063 -11.10546875 58.51953125 C-11.07066406 57.68808594 -11.03585938 56.85664062 -11 56 C-13.64 56 -16.28 56 -19 56 C-19.33 55.34 -19.66 54.68 -20 54 C-16.37 54 -12.74 54 -9 54 C-9 58.29 -9 62.58 -9 67 C-7.02 67.66 -5.04 68.32 -3 69 C-0.25584905 66.73881962 0.89410286 65.52405508 1.609375 61.984375 C1.65578125 60.91703125 1.7021875 59.8496875 1.75 58.75 C1.83507813 57.13351563 1.83507813 57.13351563 1.921875 55.484375 C1.96054688 54.25460938 1.96054688 54.25460938 2 53 C2.80824219 52.98582031 3.61648437 52.97164062 4.44921875 52.95703125 C11.29148694 52.79297274 11.29148694 52.79297274 17.0625 49.5 C17.701875 48.675 18.34125 47.85 19 47 C19.99 46.67 20.98 46.34 22 46 C22.66 44.68 23.32 43.36 24 42 C5.85 42 -12.3 42 -31 42 C-31 41.67 -31 41.34 -31 41 C-12.52 41 5.96 41 25 41 C25.46428059 28.59655876 25.46428059 28.59655876 20 24 C19.38125 24.99 19.38125 24.99 18.75 26 C17.88375 26.99 17.88375 26.99 17 28 C15.68 28 14.36 28 13 28 C12.34 26.35 11.68 24.7 11 23 C10.2575 23.825 9.515 24.65 8.75 25.5 C6 28 6 28 2 28 C2.495 26.515 2.495 26.515 3 25 C2.34 24.67 1.68 24.34 1 24 C1.495 22.515 1.495 22.515 2 21 C3.98 20.67 5.96 20.34 8 20 C7.34 19.67 6.68 19.34 6 19 C6 18.34 6 17.68 6 17 C8.31 17 10.62 17 13 17 C10.525 14.525 10.525 14.525 8 12 C3.93686138 13.59829623 1.31808538 16.52453038 -1.625 19.625 C-3.37971841 21.47207201 -5.15000225 23.24397039 -7 25 C-7.66 25 -8.32 25 -9 25 C-9 25.99 -9 26.98 -9 28 C-10.65 28 -12.3 28 -14 28 C-12.768606 24.30581799 -10.79208646 22.64890254 -8 20 C-8.99 19.67 -9.98 19.34 -11 19 C-9.53033642 15.60140297 -7.61962486 13.35036291 -5 10.75 C-4.29875 10.04359375 -3.5975 9.3371875 -2.875 8.609375 C-1 7 -1 7 1 7 C1 5.68 1 4.36 1 3 C0.34 3 -0.32 3 -1 3 C-0.67 2.01 -0.34 1.02 0 0 Z M14 23 C14.33 23.66 14.66 24.32 15 25 C15.33 24.34 15.66 23.68 16 23 C15.34 23 14.68 23 14 23 Z " fill="#F7F7F8" transform="translate(34,0)"/>
<path d="M0 0 C17.16 0 34.32 0 52 0 C49.87378731 4.25242538 48.18042241 7.57725519 44 10 C39.94981214 10.50627348 36.05901289 10.35467103 32 10 C32.05800781 10.80824219 32.11601563 11.61648437 32.17578125 12.44921875 C32.53990054 21.07364433 32.53990054 21.07364433 30.88671875 23.91015625 C29.5 25.25 29.5 25.25 27 27 C25 26 23 25 21 24 C21 19.38 21 14.76 21 10 C18.1846875 10.12375 18.1846875 10.12375 15.3125 10.25 C11.17240929 10.25977589 9.39487559 10.22781284 5.75 8.125 C4 6 4 6 4 4 C2.68 3.34 1.36 2.68 0 2 C0 1.34 0 0.68 0 0 Z " fill="#202231" transform="translate(4,43)"/>
<path d="M0 0 C4.29 0 8.58 0 13 0 C13 3.3 13 6.6 13 10 C13.99 10 14.98 10 16 10 C16 9.01 16 8.02 16 7 C17.485 7.495 17.485 7.495 19 8 C19 8.66 19 9.32 19 10 C19.99 10 20.98 10 22 10 C22 7.69 22 5.38 22 3 C23.20628008 5.33214148 24.1654738 7.49642139 25 10 C26.65 10 28.3 10 30 10 C30 7.36 30 4.72 30 2 C28.35 2 26.7 2 25 2 C25 1.34 25 0.68 25 0 C30.28 0 35.56 0 41 0 C41 3.96 41 7.92 41 12 C22.52 12 4.04 12 -15 12 C-15 11.34 -15 10.68 -15 10 C-14.01 10 -13.02 10 -12 10 C-12 9.01 -12 8.02 -12 7 C-10.68 6.67 -9.36 6.34 -8 6 C-8.33 4.35 -8.66 2.7 -9 1 C-8.01 1 -7.02 1 -6 1 C-6 3.97 -6 6.94 -6 10 C-5.34 10 -4.68 10 -4 10 C-4 9.01 -4 8.02 -4 7 C-3.34 7 -2.68 7 -2 7 C-2 7.99 -2 8.98 -2 10 C-1.01 10 -0.02 10 1 10 C0.835 9.46375 0.67 8.9275 0.5 8.375 C0 6 0 6 0 0 Z " fill="#2B2C3B" transform="translate(18,29)"/>
<path d="M0 0 C1.27536756 0.61569468 2.54580592 1.24165296 3.8125 1.875 C3.8125 5.875 3.8125 5.875 2.203125 7.62109375 C1.49671875 8.17925781 0.7903125 8.73742188 0.0625 9.3125 C-3.12376343 11.9338231 -5.74597788 14.51790708 -8.1875 17.875 C-6.8675 18.205 -5.5475 18.535 -4.1875 18.875 C-6.40678194 21.78302461 -8.11719143 23.82812762 -11.1875 25.875 C-13.78995498 26.01721065 -16.27867684 26.06302932 -18.875 26 C-19.57689453 25.99097656 -20.27878906 25.98195313 -21.00195312 25.97265625 C-22.73061525 25.94913704 -24.45910145 25.91326713 -26.1875 25.875 C-24.56256343 21.71795367 -21.51527176 18.97904495 -18.375 15.9375 C-17.85357422 15.42509766 -17.33214844 14.91269531 -16.79492188 14.38476562 C-15.75920275 13.36714896 -14.72186954 12.35117227 -13.68286133 11.33691406 C-10.57236417 8.29599047 -7.51979521 5.24781901 -4.625 2 C-2.1875 -0.125 -2.1875 -0.125 0 0 Z " fill="#282938" transform="translate(31.1875,1.125)"/>
<path d="M0 0 C0.66 0 1.32 0 2 0 C2.66 1.65 3.32 3.3 4 5 C5.32 5 6.64 5 8 5 C8.66 3.35 9.32 1.7 10 0 C14.875 2.625 14.875 2.625 16 6 C10.72 6 5.44 6 0 6 C0 6.66 0 7.32 0 8 C1.65 8 3.3 8 5 8 C5 10.64 5 13.28 5 16 C2.625 16.1875 2.625 16.1875 0 16 C-0.66 15.01 -1.32 14.02 -2 13 C-2.33 13.99 -2.66 14.98 -3 16 C-6 16 -6 16 -7.6875 14.5 C-8.120625 14.005 -8.55375 13.51 -9 13 C-9 13.99 -9 14.98 -9 16 C-9.99 16 -10.98 16 -12 16 C-12 12.7 -12 9.4 -12 6 C-9.72135417 5.86979167 -7.44270833 5.73958333 -5.1640625 5.609375 C-2.82275696 5.21334556 -2.82275696 5.21334556 -1.7734375 3.015625 C-1.51820312 2.35046875 -1.26296875 1.6853125 -1 1 C-0.67 0.67 -0.34 0.34 0 0 Z " fill="#484A56" transform="translate(43,23)"/>
<path d="M0 0 C1.32 0.99 2.64 1.98 4 3 C3.84595887 8.08335725 0.97931568 10.35754718 -2.50390625 13.64453125 C-2.99761719 14.09183594 -3.49132813 14.53914062 -4 15 C-1.22957891 15 -0.41835044 13.8163115 1.625 12 C2.25664063 11.443125 2.88828125 10.88625 3.5390625 10.3125 C4.02117188 9.879375 4.50328125 9.44625 5 9 C5.99 9.66 6.98 10.32 8 11 C7.50371094 11.42410156 7.00742187 11.84820312 6.49609375 12.28515625 C2.2770701 15.9277668 -1.72536941 19.66289088 -5.5546875 23.71484375 C-7 25 -7 25 -9 25 C-9 25.99 -9 26.98 -9 28 C-10.65 28 -12.3 28 -14 28 C-12.768606 24.30581799 -10.79208646 22.64890254 -8 20 C-8.99 19.67 -9.98 19.34 -11 19 C-9.53033642 15.60140297 -7.61962486 13.35036291 -5 10.75 C-4.29875 10.04359375 -3.5975 9.3371875 -2.875 8.609375 C-1 7 -1 7 1 7 C1 5.68 1 4.36 1 3 C0.34 3 -0.32 3 -1 3 C-0.67 2.01 -0.34 1.02 0 0 Z " fill="#ECECED" transform="translate(34,0)"/>
<path d="M0 0 C4.29 0 8.58 0 13 0 C13 3.63 13 7.26 13 11 C11.77503707 9.1625556 10.59564016 7.29237027 9.5 5.375 C8.21973738 2.8942773 8.21973738 2.8942773 6 2 C6 2.99 6 3.98 6 5 C5.34 5 4.68 5 4 5 C3.87625 5.969375 3.7525 6.93875 3.625 7.9375 C3.315625 9.4534375 3.315625 9.4534375 3 11 C-0.18824568 12.59412284 -3.62896662 12.10174735 -7.125 12.0625 C-7.87910156 12.05798828 -8.63320312 12.05347656 -9.41015625 12.04882812 C-11.27347127 12.03703499 -13.13674555 12.01909942 -15 12 C-15 11.34 -15 10.68 -15 10 C-14.01 10 -13.02 10 -12 10 C-12 9.01 -12 8.02 -12 7 C-10.68 6.67 -9.36 6.34 -8 6 C-8.33 4.35 -8.66 2.7 -9 1 C-8.01 1 -7.02 1 -6 1 C-6 3.97 -6 6.94 -6 10 C-5.34 10 -4.68 10 -4 10 C-4 9.01 -4 8.02 -4 7 C-3.34 7 -2.68 7 -2 7 C-2 7.99 -2 8.98 -2 10 C-1.01 10 -0.02 10 1 10 C0.835 9.46375 0.67 8.9275 0.5 8.375 C0 6 0 6 0 0 Z " fill="#282A39" transform="translate(18,29)"/>
<path d="M0 0 C2.49361571 1.20381448 4.68143083 2.45428722 7 4 C7 4.66 7 5.32 7 6 C4.69 6 2.38 6 0 6 C0 6.66 0 7.32 0 8 C0.99 8.33 1.98 8.66 3 9 C1.865625 9.28875 0.73125 9.5775 -0.4375 9.875 C-1.613125 10.24625 -2.78875 10.6175 -4 11 C-4.33 11.66 -4.66 12.32 -5 13 C-4.01 13.33 -3.02 13.66 -2 14 C-4 16 -4 16 -6.3828125 16.1953125 C-7.28773437 16.17210938 -8.19265625 16.14890625 -9.125 16.125 C-10.49011719 16.09792969 -10.49011719 16.09792969 -11.8828125 16.0703125 C-12.58148437 16.04710938 -13.28015625 16.02390625 -14 16 C-12.34136495 11.67495164 -9.128959 8.90581175 -5.875 5.75 C-5.31167969 5.19570313 -4.74835937 4.64140625 -4.16796875 4.0703125 C-2.78313972 2.70895515 -1.39216796 1.35385141 0 0 Z " fill="#333543" transform="translate(40,11)"/>
<path d="M0 0 C5.28 0 10.56 0 16 0 C17 6 17 6 17 10 C16.01 10 15.02 10 14 10 C14 9.01 14 8.02 14 7 C13.34 7 12.68 7 12 7 C12 7.99 12 8.98 12 10 C11.34 10 10.68 10 10 10 C10 7.03 10 4.06 10 1 C9.01 1.495 9.01 1.495 8 2 C8 3.32 8 4.64 8 6 C6.68 6.33 5.36 6.66 4 7 C4 7.99 4 8.98 4 10 C3.01 10 2.02 10 1 10 C0.67 10.66 0.34 11.32 0 12 C0 8.04 0 4.08 0 0 Z " fill="#575964" transform="translate(2,29)"/>
<path d="M0 0 C0.66 0 1.32 0 2 0 C2.66 1.65 3.32 3.3 4 5 C5.32 5 6.64 5 8 5 C8.66 3.35 9.32 1.7 10 0 C14.875 2.625 14.875 2.625 16 6 C8.41 6 0.82 6 -7 6 C-5.68 5.67 -4.36 5.34 -3 5 C-1.77472052 3.04978917 -1.77472052 3.04978917 -1 1 C-0.67 0.67 -0.34 0.34 0 0 Z " fill="#ABACB2" transform="translate(43,23)"/>
<path d="M0 0 C3.63 0 7.26 0 11 0 C11 4.29 11 8.58 11 13 C12.32 13.66 13.64 14.32 15 15 C15.99 15.66 16.98 16.32 18 17 C12.54545455 17.36363636 12.54545455 17.36363636 10.3125 15.875 C8.41652621 13.16646601 8.70721247 11.07641345 8.8125 7.8125 C8.83957031 6.72582031 8.86664063 5.63914062 8.89453125 4.51953125 C8.92933594 3.68808594 8.96414062 2.85664062 9 2 C6.36 2 3.72 2 1 2 C0.67 1.34 0.34 0.68 0 0 Z " fill="#FBFBFC" transform="translate(14,54)"/>
<path d="M0 0 C3.96 0 7.92 0 12 0 C12 0.33 12 0.66 12 1 C8.7 1.33 5.4 1.66 2 2 C2.03480469 2.90363281 2.06960937 3.80726562 2.10546875 4.73828125 C2.13253906 5.91777344 2.15960938 7.09726562 2.1875 8.3125 C2.22230469 9.48425781 2.25710937 10.65601563 2.29296875 11.86328125 C2 15 2 15 0.625 16.9375 C-1 18 -1 18 -3.1875 17.6875 C-3.785625 17.460625 -4.38375 17.23375 -5 17 C-4.360625 16.4225 -3.72125 15.845 -3.0625 15.25 C0.06713606 10.31845227 -0.25477363 5.79609997 0 0 Z " fill="#E8EBED" transform="translate(36,53)"/>
<path d="M0 0 C1.2065625 0.0309375 1.2065625 0.0309375 2.4375 0.0625 C2.4375 2.7025 2.4375 5.3425 2.4375 8.0625 C0.7875 8.0625 -0.8625 8.0625 -2.5625 8.0625 C-2.94313221 5.7364143 -3.27519945 3.40194736 -3.5625 1.0625 C-2.5625 0.0625 -2.5625 0.0625 0 0 Z " fill="#B6B7BC" transform="translate(45.5625,30.9375)"/>
<path d="M0 0 C4.95 0 9.9 0 15 0 C15 0.66 15 1.32 15 2 C13.02 2 11.04 2 9 2 C9.33 3.65 9.66 5.3 10 7 C8.68 6.67 7.36 6.34 6 6 C6 4.68 6 3.36 6 2 C4.02 2 2.04 2 0 2 C0 1.34 0 0.68 0 0 Z " fill="#353744" transform="translate(43,29)"/>
<path d="M0 0 C3 1 3 1 5 4 C5 5.32 5 6.64 5 8 C2.36 8 -0.28 8 -3 8 C-2.67 6.35 -2.34 4.7 -2 3 C-1.34 3 -0.68 3 0 3 C0 2.01 0 1.02 0 0 Z " fill="#A5A6AC" transform="translate(24,31)"/>
<path d="M0 0 C1.98 0 3.96 0 6 0 C6 2.64 6 5.28 6 8 C5.01 8 4.02 8 3 8 C3 7.01 3 6.02 3 5 C2.34 5 1.68 5 1 5 C0.67 5.99 0.34 6.98 0 8 C0 5.36 0 2.72 0 0 Z " fill="#D1D2D6" transform="translate(13,31)"/>
<path d="M0 0 C2.31 0 4.62 0 7 0 C7 1.32 7 2.64 7 4 C5.35 4.33 3.7 4.66 2 5 C2 5.66 2 6.32 2 7 C1.34 7 0.68 7 0 7 C0 4.69 0 2.38 0 0 Z " fill="#DADADD" transform="translate(3,31)"/>
<path d="M0 0 C1.98 0.99 1.98 0.99 4 2 C4.33 1.34 4.66 0.68 5 0 C5.66 0 6.32 0 7 0 C7 2.31 7 4.62 7 7 C5 6 3 5 1 4 C0.67 4.99 0.34 5.98 0 7 C0 4.69 0 2.38 0 0 Z " fill="#D5D6D8" transform="translate(32,31)"/>
<path d="M0 0 C0.66 0 1.32 0 2 0 C2 0.99 2 1.98 2 3 C2.99 3.33 3.98 3.66 5 4 C1.99686252 5.50156874 -0.79067522 5.09281204 -4.125 5.0625 C-5.40632812 5.05347656 -6.68765625 5.04445313 -8.0078125 5.03515625 C-9.48894531 5.01775391 -9.48894531 5.01775391 -11 5 C-11 4.34 -11 3.68 -11 3 C-7.37 3 -3.74 3 0 3 C0 2.01 0 1.02 0 0 Z " fill="#333543" transform="translate(14,36)"/>
<path d="M0 0 C0.66 1.32 1.32 2.64 2 4 C-1.96 4 -5.92 4 -10 4 C-7.41212273 1.41212273 -5.57992139 1.37290848 -2 1 C-1.34 1.33 -0.68 1.66 0 2 C0 1.34 0 0.68 0 0 Z M2 2 C5 3 5 3 5 3 Z " fill="#313241" transform="translate(29,37)"/>
<path d="M0 0 C1.32 0.33 2.64 0.66 4 1 C3.34 1 2.68 1 2 1 C2 1.66 2 2.32 2 3 C2.99 3.33 3.98 3.66 5 4 C5 5.32 5 6.64 5 8 C3.35 8 1.7 8 0 8 C0 5.33333333 0 2.66666667 0 0 Z " fill="#D5D5D9" transform="translate(52,31)"/>
<path d="M0 0 C1.65 0 3.3 0 5 0 C5 3.3 5 6.6 5 10 C0 2.5 0 2.5 0 0 Z " fill="#1D202F" transform="translate(26,30)"/>
<path d="M0 0 C0.33 0 0.66 0 1 0 C1 3.96 1 7.92 1 12 C-1 9 -1 9 -2 6 C-2.66 5.67 -3.32 5.34 -4 5 C-4 4.34 -4 3.68 -4 3 C-2.68 2.67 -1.36 2.34 0 2 C0 1.34 0 0.68 0 0 Z " fill="#646670" transform="translate(58,29)"/>
<path d="M0 0 C0.66 0 1.32 0 2 0 C2.33 1.65 2.66 3.3 3 5 C-0.3 5.33 -3.6 5.66 -7 6 C-5.68 5.67 -4.36 5.34 -3 5 C-1.77472052 3.04978917 -1.77472052 3.04978917 -1 1 C-0.67 0.67 -0.34 0.34 0 0 Z " fill="#91929A" transform="translate(43,23)"/>
<path d="M0 0 C1.65 0 3.3 0 5 0 C5 1.98 5 3.96 5 6 C3.68 5.67 2.36 5.34 1 5 C0.67 3.35 0.34 1.7 0 0 Z " fill="#2B2D3B" transform="translate(48,30)"/>
<path d="M0 0 C0.99 0.33 1.98 0.66 3 1 C3 2.65 3 4.3 3 6 C1.68 6 0.36 6 -1 6 C-0.67 4.02 -0.34 2.04 0 0 Z " fill="#E0E0E3" transform="translate(24,31)"/>
<path d="M0 0 C1.98 0 3.96 0 6 0 C4.02 2.97 4.02 2.97 2 6 C1.34 5.67 0.68 5.34 0 5 C0.33 4.67 0.66 4.34 1 4 C0.34 3.67 -0.32 3.34 -1 3 C-0.67 2.01 -0.34 1.02 0 0 Z " fill="#C9CBD0" transform="translate(36,21)"/>
<path d="M0 0 C0.33 0.99 0.66 1.98 1 3 C-0.4375 5.1875 -0.4375 5.1875 -2 7 C-3.32 6.67 -4.64 6.34 -6 6 C-5.34 5.67 -4.68 5.34 -4 5 C-3.67 4.34 -3.34 3.68 -3 3 C-2 1 -2 1 0 0 Z " fill="#FCFCFD" transform="translate(42,21)"/>
<path d="M0 0 C1.32 0 2.64 0 4 0 C4 1.32 4 2.64 4 4 C2.68 4.33 1.36 4.66 0 5 C0 3.35 0 1.7 0 0 Z " fill="#C3C4C9" transform="translate(6,31)"/>
<path d="M0 0 C0.226875 0.639375 0.45375 1.27875 0.6875 1.9375 C1.85250896 4.27193661 1.85250896 4.27193661 4.625 4.75 C5.40875 4.8325 6.1925 4.915 7 5 C6.01 5.33 5.02 5.66 4 6 C3.67 6.66 3.34 7.32 3 8 C2.01 7.67 1.02 7.34 0 7 C0 4.69 0 2.38 0 0 Z " fill="#4B4C59" transform="translate(48,31)"/>
</svg>
